<svg width="159" height="158" viewBox="0 0 159 158" fill="none" xmlns="http://www.w3.org/2000/svg">
<path d="M158.066 79.1952C158.066 119 128.569 151.907 90.2506 157.247C86.6677 157.744 83.002 158.003 79.2811 158.003C74.9861 158.003 70.7684 157.661 66.661 156.998C29.1485 150.957 0.496521 118.42 0.496521 79.1952C0.496521 35.669 35.7732 0.381897 79.2867 0.381897C122.8 0.381897 158.077 35.669 158.077 79.1952H158.066Z" fill="#383D38"/>
<path d="M32.4498 35.1444L68.7864 83.7401L32.2234 123.252H40.4547L72.4687 88.6604L98.3327 123.252H126.339L87.9595 71.9225L121.994 35.1444H113.763L84.2827 67.0022L60.4614 35.1444H32.4552H32.4498ZM44.5509 41.2078H57.414L114.227 117.188H101.364L44.5509 41.2078Z" fill="white"/>
</svg>
