<svg width="370" height="36" viewBox="0 0 370 36" fill="none" xmlns="http://www.w3.org/2000/svg">
<g clip-path="url(#clip0_839_409)">
<rect width="370" height="36" rx="18" fill="#767680" fill-opacity="0.24"/>
<path d="M71.7878 23V13.1357H73.3191V21.6738H77.947V23H71.7878ZM82.4061 23.1436C81.6814 23.1436 81.0594 22.9886 80.5398 22.6787C80.0203 22.3643 79.6193 21.9199 79.3367 21.3457C79.0587 20.7715 78.9197 20.0924 78.9197 19.3086V19.3018C78.9197 18.527 79.0587 17.8503 79.3367 17.2715C79.6193 16.6927 80.0158 16.2415 80.5262 15.918C81.0411 15.5944 81.6427 15.4326 82.3309 15.4326C83.0236 15.4326 83.6183 15.5876 84.115 15.8975C84.6163 16.2074 85.0014 16.6426 85.2703 17.2031C85.5392 17.7591 85.6736 18.4108 85.6736 19.1582V19.6777H79.6717V18.6182H84.9353L84.2244 19.6025V19.0078C84.2244 18.4792 84.1424 18.0417 83.9783 17.6953C83.8188 17.3444 83.5978 17.0824 83.3152 16.9092C83.0327 16.736 82.7068 16.6494 82.3377 16.6494C81.9686 16.6494 81.6381 16.7406 81.3465 16.9229C81.0594 17.1006 80.8315 17.3649 80.6629 17.7158C80.4988 18.0667 80.4168 18.4974 80.4168 19.0078V19.6025C80.4168 20.0902 80.4988 20.5072 80.6629 20.8535C80.827 21.1999 81.0594 21.4642 81.3602 21.6465C81.6655 21.8288 82.0255 21.9199 82.4402 21.9199C82.7592 21.9199 83.0327 21.8766 83.2605 21.79C83.493 21.6989 83.6821 21.5872 83.8279 21.4551C83.9783 21.3229 84.0809 21.193 84.1355 21.0654L84.1629 21.0107H85.5984L85.5848 21.0723C85.521 21.3184 85.4093 21.5645 85.2498 21.8105C85.0903 22.0521 84.8784 22.2731 84.6141 22.4736C84.3543 22.6742 84.0398 22.8359 83.6707 22.959C83.3061 23.082 82.8846 23.1436 82.4061 23.1436ZM89.2372 23L86.5507 15.5762H88.1298L89.9823 21.4961H90.0917L91.9374 15.5762H93.5028L90.8231 23H89.2372ZM97.75 23.1436C97.0254 23.1436 96.4033 22.9886 95.8838 22.6787C95.3642 22.3643 94.9632 21.9199 94.6806 21.3457C94.4026 20.7715 94.2636 20.0924 94.2636 19.3086V19.3018C94.2636 18.527 94.4026 17.8503 94.6806 17.2715C94.9632 16.6927 95.3597 16.2415 95.8701 15.918C96.3851 15.5944 96.9866 15.4326 97.6748 15.4326C98.3675 15.4326 98.9622 15.5876 99.4589 15.8975C99.9602 16.2074 100.345 16.6426 100.614 17.2031C100.883 17.7591 101.018 18.4108 101.018 19.1582V19.6777H95.0156V18.6182H100.279L99.5683 19.6025V19.0078C99.5683 18.4792 99.4863 18.0417 99.3222 17.6953C99.1627 17.3444 98.9417 17.0824 98.6591 16.9092C98.3766 16.736 98.0507 16.6494 97.6816 16.6494C97.3125 16.6494 96.9821 16.7406 96.6904 16.9229C96.4033 17.1006 96.1754 17.3649 96.0068 17.7158C95.8427 18.0667 95.7607 18.4974 95.7607 19.0078V19.6025C95.7607 20.0902 95.8427 20.5072 96.0068 20.8535C96.1709 21.1999 96.4033 21.4642 96.7041 21.6465C97.0094 21.8288 97.3694 21.9199 97.7841 21.9199C98.1032 21.9199 98.3766 21.8766 98.6045 21.79C98.8369 21.6989 99.026 21.5872 99.1718 21.4551C99.3222 21.3229 99.4248 21.193 99.4795 21.0654L99.5068 21.0107H100.942L100.929 21.0723C100.865 21.3184 100.753 21.5645 100.594 21.8105C100.434 22.0521 100.222 22.2731 99.958 22.4736C99.6982 22.6742 99.3838 22.8359 99.0146 22.959C98.65 23.082 98.2285 23.1436 97.75 23.1436ZM102.77 23V12.6641H104.253V23H102.77ZM112.522 23V14.7148H112.412L109.931 16.4854V14.9814L112.529 13.1357H114.06V23H112.522ZM119.182 23V14.7148H119.073L116.591 16.4854V14.9814L119.189 13.1357H120.72V23H119.182Z" fill="white"/>
<g filter="url(#filter0_d_839_409)">
<rect x="181" y="4" width="185" height="28" rx="14" fill="#6C6C71"/>
</g>
<path d="M247.263 23V13.1357H249.027V21.5166H253.546V23H247.263ZM258.053 23.1504C257.31 23.1504 256.672 22.9932 256.138 22.6787C255.61 22.3643 255.202 21.9176 254.915 21.3389C254.628 20.7601 254.484 20.0742 254.484 19.2812V19.2744C254.484 18.4906 254.625 17.807 254.908 17.2236C255.195 16.6403 255.601 16.1891 256.125 15.8701C256.649 15.5465 257.264 15.3848 257.971 15.3848C258.681 15.3848 259.292 15.542 259.803 15.8564C260.318 16.1663 260.714 16.6016 260.992 17.1621C261.27 17.7227 261.409 18.3789 261.409 19.1309V19.6914H255.339V18.5498H260.575L259.768 19.6162V18.9395C259.768 18.4427 259.693 18.0303 259.543 17.7021C259.392 17.374 259.183 17.1279 258.914 16.9639C258.65 16.7998 258.342 16.7178 257.991 16.7178C257.64 16.7178 257.328 16.8044 257.054 16.9775C256.786 17.1462 256.571 17.3968 256.412 17.7295C256.257 18.0576 256.179 18.4609 256.179 18.9395V19.623C256.179 20.0833 256.257 20.4775 256.412 20.8057C256.567 21.1292 256.786 21.3799 257.068 21.5576C257.355 21.7308 257.695 21.8174 258.087 21.8174C258.392 21.8174 258.654 21.7741 258.873 21.6875C259.096 21.5964 259.276 21.4893 259.413 21.3662C259.55 21.2386 259.645 21.1178 259.7 21.0039L259.721 20.9561H261.334L261.32 21.0176C261.261 21.2591 261.151 21.5052 260.992 21.7559C260.837 22.002 260.625 22.2321 260.356 22.4463C260.092 22.6559 259.768 22.8268 259.386 22.959C259.003 23.0866 258.558 23.1504 258.053 23.1504ZM264.863 23L262.204 15.5283H264.022L265.745 21.3389H265.868L267.584 15.5283H269.375L266.723 23H264.863ZM273.629 23.1504C272.886 23.1504 272.248 22.9932 271.715 22.6787C271.186 22.3643 270.778 21.9176 270.491 21.3389C270.204 20.7601 270.061 20.0742 270.061 19.2812V19.2744C270.061 18.4906 270.202 17.807 270.484 17.2236C270.771 16.6403 271.177 16.1891 271.701 15.8701C272.225 15.5465 272.84 15.3848 273.547 15.3848C274.258 15.3848 274.868 15.542 275.379 15.8564C275.894 16.1663 276.29 16.6016 276.568 17.1621C276.846 17.7227 276.985 18.3789 276.985 19.1309V19.6914H270.915V18.5498H276.151L275.345 19.6162V18.9395C275.345 18.4427 275.269 18.0303 275.119 17.7021C274.969 17.374 274.759 17.1279 274.49 16.9639C274.226 16.7998 273.918 16.7178 273.567 16.7178C273.216 16.7178 272.904 16.8044 272.631 16.9775C272.362 17.1462 272.148 17.3968 271.988 17.7295C271.833 18.0576 271.756 18.4609 271.756 18.9395V19.623C271.756 20.0833 271.833 20.4775 271.988 20.8057C272.143 21.1292 272.362 21.3799 272.644 21.5576C272.932 21.7308 273.271 21.8174 273.663 21.8174C273.968 21.8174 274.23 21.7741 274.449 21.6875C274.672 21.5964 274.853 21.4893 274.989 21.3662C275.126 21.2386 275.222 21.1178 275.276 21.0039L275.297 20.9561H276.91L276.896 21.0176C276.837 21.2591 276.728 21.5052 276.568 21.7559C276.413 22.002 276.201 22.2321 275.933 22.4463C275.668 22.6559 275.345 22.8268 274.962 22.959C274.579 23.0866 274.135 23.1504 273.629 23.1504ZM278.676 23V12.6367H280.378V23H278.676ZM288.503 23V14.8721H288.38L285.926 16.6016V14.9473L288.503 13.1357H290.26V23H288.503ZM296.483 23.2461C295.813 23.2461 295.223 23.1208 294.712 22.8701C294.202 22.6195 293.796 22.2799 293.495 21.8516C293.195 21.4186 293.021 20.9333 292.976 20.3955L292.969 20.3066H294.589L294.603 20.3545C294.648 20.6234 294.755 20.8672 294.924 21.0859C295.093 21.3047 295.311 21.4801 295.58 21.6123C295.849 21.7399 296.152 21.8037 296.49 21.8037C296.872 21.8037 297.21 21.7194 297.501 21.5508C297.797 21.3822 298.028 21.1497 298.192 20.8535C298.356 20.5527 298.438 20.2109 298.438 19.8281V19.8145C298.438 19.4316 298.353 19.0944 298.185 18.8027C298.021 18.5065 297.793 18.2764 297.501 18.1123C297.214 17.9437 296.881 17.8594 296.503 17.8594C296.225 17.8594 295.968 17.9004 295.731 17.9824C295.498 18.0645 295.291 18.1875 295.109 18.3516C295.018 18.429 294.933 18.5156 294.856 18.6113C294.778 18.7025 294.71 18.8027 294.651 18.9121H293.14L293.618 13.1357H299.538V14.5781H294.992L294.712 17.5859H294.835C294.972 17.3626 295.145 17.1735 295.355 17.0186C295.564 16.859 295.804 16.7383 296.073 16.6562C296.341 16.5697 296.629 16.5264 296.934 16.5264C297.554 16.5264 298.101 16.6676 298.574 16.9502C299.053 17.2282 299.429 17.6133 299.702 18.1055C299.976 18.5931 300.113 19.1514 300.113 19.7803V19.7939C300.113 20.4775 299.958 21.0791 299.648 21.5986C299.342 22.1136 298.916 22.5169 298.369 22.8086C297.823 23.1003 297.194 23.2461 296.483 23.2461Z" fill="white"/>
</g>
<defs>
<filter id="filter0_d_839_409" x="161" y="-14" width="225" height="68" filterUnits="userSpaceOnUse" color-interpolation-filters="sRGB">
<feFlood flood-opacity="0" result="BackgroundImageFix"/>
<feColorMatrix in="SourceAlpha" type="matrix" values="0 0 0 0 0 0 0 0 0 0 0 0 0 0 0 0 0 0 127 0" result="hardAlpha"/>
<feOffset dy="2"/>
<feGaussianBlur stdDeviation="10"/>
<feColorMatrix type="matrix" values="0 0 0 0 0 0 0 0 0 0 0 0 0 0 0 0 0 0 0.06 0"/>
<feBlend mode="normal" in2="BackgroundImageFix" result="effect1_dropShadow_839_409"/>
<feBlend mode="normal" in="SourceGraphic" in2="effect1_dropShadow_839_409" result="shape"/>
</filter>
<clipPath id="clip0_839_409">
<rect width="370" height="36" rx="18" fill="white"/>
</clipPath>
</defs>
</svg>
