<svg width="370" height="36" viewBox="0 0 370 36" fill="none" xmlns="http://www.w3.org/2000/svg">
<g clip-path="url(#clip0_839_402)">
<rect width="370" height="36" rx="18" fill="#767680" fill-opacity="0.24"/>
<g filter="url(#filter0_d_839_402)">
<rect x="4" y="4" width="185" height="28" rx="14" fill="#6C6C71"/>
</g>
<path d="M71.3366 23V13.1357H73.1003V21.5166H77.6189V23H71.3366ZM82.1258 23.1504C81.3829 23.1504 80.7449 22.9932 80.2117 22.6787C79.6831 22.3643 79.2752 21.9176 78.9881 21.3389C78.701 20.7601 78.5574 20.0742 78.5574 19.2812V19.2744C78.5574 18.4906 78.6987 17.807 78.9812 17.2236C79.2684 16.6403 79.674 16.1891 80.198 15.8701C80.7221 15.5465 81.3374 15.3848 82.0437 15.3848C82.7547 15.3848 83.3654 15.542 83.8758 15.8564C84.3908 16.1663 84.7872 16.6016 85.0652 17.1621C85.3432 17.7227 85.4822 18.3789 85.4822 19.1309V19.6914H79.4119V18.5498H84.6482L83.8416 19.6162V18.9395C83.8416 18.4427 83.7664 18.0303 83.616 17.7021C83.4656 17.374 83.256 17.1279 82.9871 16.9639C82.7228 16.7998 82.4152 16.7178 82.0643 16.7178C81.7133 16.7178 81.4012 16.8044 81.1277 16.9775C80.8589 17.1462 80.6447 17.3968 80.4852 17.7295C80.3302 18.0576 80.2527 18.4609 80.2527 18.9395V19.623C80.2527 20.0833 80.3302 20.4775 80.4852 20.8057C80.6401 21.1292 80.8589 21.3799 81.1414 21.5576C81.4285 21.7308 81.768 21.8174 82.16 21.8174C82.4653 21.8174 82.7273 21.7741 82.9461 21.6875C83.1694 21.5964 83.3494 21.4893 83.4861 21.3662C83.6228 21.2386 83.7186 21.1178 83.7732 21.0039L83.7937 20.9561H85.407L85.3934 21.0176C85.3341 21.2591 85.2247 21.5052 85.0652 21.7559C84.9103 22.002 84.6984 22.2321 84.4295 22.4463C84.1652 22.6559 83.8416 22.8268 83.4588 22.959C83.076 23.0866 82.6316 23.1504 82.1258 23.1504ZM88.9364 23L86.2772 15.5283H88.0956L89.8182 21.3389H89.9413L91.6571 15.5283H93.4481L90.7958 23H88.9364ZM97.7021 23.1504C96.9593 23.1504 96.3213 22.9932 95.788 22.6787C95.2594 22.3643 94.8515 21.9176 94.5644 21.3389C94.2773 20.7601 94.1338 20.0742 94.1338 19.2812V19.2744C94.1338 18.4906 94.275 17.807 94.5576 17.2236C94.8447 16.6403 95.2503 16.1891 95.7744 15.8701C96.2985 15.5465 96.9137 15.3848 97.6201 15.3848C98.331 15.3848 98.9417 15.542 99.4521 15.8564C99.9671 16.1663 100.364 16.6016 100.642 17.1621C100.92 17.7227 101.059 18.3789 101.059 19.1309V19.6914H94.9882V18.5498H100.225L99.4179 19.6162V18.9395C99.4179 18.4427 99.3427 18.0303 99.1923 17.7021C99.042 17.374 98.8323 17.1279 98.5634 16.9639C98.2991 16.7998 97.9915 16.7178 97.6406 16.7178C97.2897 16.7178 96.9775 16.8044 96.7041 16.9775C96.4352 17.1462 96.221 17.3968 96.0615 17.7295C95.9065 18.0576 95.8291 18.4609 95.8291 18.9395V19.623C95.8291 20.0833 95.9065 20.4775 96.0615 20.8057C96.2164 21.1292 96.4352 21.3799 96.7177 21.5576C97.0048 21.7308 97.3444 21.8174 97.7363 21.8174C98.0416 21.8174 98.3037 21.7741 98.5224 21.6875C98.7457 21.5964 98.9257 21.4893 99.0625 21.3662C99.1992 21.2386 99.2949 21.1178 99.3496 21.0039L99.3701 20.9561H100.983L100.97 21.0176C100.91 21.2591 100.801 21.5052 100.642 21.7559C100.487 22.002 100.275 22.2321 100.006 22.4463C99.7415 22.6559 99.4179 22.8268 99.0351 22.959C98.6523 23.0866 98.208 23.1504 97.7021 23.1504ZM102.749 23V12.6367H104.451V23H102.749ZM112.576 23V14.8721H112.453L109.999 16.6016V14.9473L112.576 13.1357H114.333V23H112.576ZM119.414 23V14.8721H119.291L116.837 16.6016V14.9473L119.414 13.1357H121.171V23H119.414Z" fill="white"/>
<path d="M247.715 23V13.1357H249.246V21.6738H253.874V23H247.715ZM258.333 23.1436C257.608 23.1436 256.986 22.9886 256.467 22.6787C255.947 22.3643 255.546 21.9199 255.263 21.3457C254.985 20.7715 254.846 20.0924 254.846 19.3086V19.3018C254.846 18.527 254.985 17.8503 255.263 17.2715C255.546 16.6927 255.943 16.2415 256.453 15.918C256.968 15.5944 257.569 15.4326 258.258 15.4326C258.95 15.4326 259.545 15.5876 260.042 15.8975C260.543 16.2074 260.928 16.6426 261.197 17.2031C261.466 17.7591 261.6 18.4108 261.6 19.1582V19.6777H255.598V18.6182H260.862L260.151 19.6025V19.0078C260.151 18.4792 260.069 18.0417 259.905 17.6953C259.746 17.3444 259.525 17.0824 259.242 16.9092C258.959 16.736 258.634 16.6494 258.264 16.6494C257.895 16.6494 257.565 16.7406 257.273 16.9229C256.986 17.1006 256.758 17.3649 256.59 17.7158C256.426 18.0667 256.344 18.4974 256.344 19.0078V19.6025C256.344 20.0902 256.426 20.5072 256.59 20.8535C256.754 21.1999 256.986 21.4642 257.287 21.6465C257.592 21.8288 257.952 21.9199 258.367 21.9199C258.686 21.9199 258.959 21.8766 259.187 21.79C259.42 21.6989 259.609 21.5872 259.755 21.4551C259.905 21.3229 260.008 21.193 260.062 21.0654L260.09 21.0107H261.525L261.512 21.0723C261.448 21.3184 261.336 21.5645 261.177 21.8105C261.017 22.0521 260.805 22.2731 260.541 22.4736C260.281 22.6742 259.967 22.8359 259.597 22.959C259.233 23.082 258.811 23.1436 258.333 23.1436ZM265.164 23L262.477 15.5762H264.057L265.909 21.4961H266.018L267.864 15.5762H269.43L266.75 23H265.164ZM273.677 23.1436C272.952 23.1436 272.33 22.9886 271.811 22.6787C271.291 22.3643 270.89 21.9199 270.607 21.3457C270.329 20.7715 270.19 20.0924 270.19 19.3086V19.3018C270.19 18.527 270.329 17.8503 270.607 17.2715C270.89 16.6927 271.286 16.2415 271.797 15.918C272.312 15.5944 272.913 15.4326 273.602 15.4326C274.294 15.4326 274.889 15.5876 275.386 15.8975C275.887 16.2074 276.272 16.6426 276.541 17.2031C276.81 17.7591 276.944 18.4108 276.944 19.1582V19.6777H270.942V18.6182H276.206L275.495 19.6025V19.0078C275.495 18.4792 275.413 18.0417 275.249 17.6953C275.089 17.3444 274.868 17.0824 274.586 16.9092C274.303 16.736 273.978 16.6494 273.608 16.6494C273.239 16.6494 272.909 16.7406 272.617 16.9229C272.33 17.1006 272.102 17.3649 271.934 17.7158C271.769 18.0667 271.687 18.4974 271.687 19.0078V19.6025C271.687 20.0902 271.769 20.5072 271.934 20.8535C272.098 21.1999 272.33 21.4642 272.631 21.6465C272.936 21.8288 273.296 21.9199 273.711 21.9199C274.03 21.9199 274.303 21.8766 274.531 21.79C274.764 21.6989 274.953 21.5872 275.099 21.4551C275.249 21.3229 275.352 21.193 275.406 21.0654L275.434 21.0107H276.869L276.855 21.0723C276.792 21.3184 276.68 21.5645 276.52 21.8105C276.361 22.0521 276.149 22.2731 275.885 22.4736C275.625 22.6742 275.311 22.8359 274.941 22.959C274.577 23.082 274.155 23.1436 273.677 23.1436ZM278.696 23V12.6641H280.18V23H278.696ZM288.448 23V14.7148H288.339L285.858 16.4854V14.9814L288.455 13.1357H289.987V23H288.448ZM296.12 23.2393C295.478 23.2393 294.908 23.1162 294.411 22.8701C293.915 22.624 293.518 22.2891 293.222 21.8652C292.926 21.4368 292.753 20.9583 292.702 20.4297L292.696 20.3408H294.138L294.145 20.3955C294.19 20.6826 294.3 20.9447 294.473 21.1816C294.651 21.4186 294.883 21.6055 295.17 21.7422C295.457 21.8789 295.779 21.9473 296.134 21.9473C296.54 21.9473 296.897 21.8584 297.207 21.6807C297.517 21.4984 297.759 21.25 297.932 20.9355C298.11 20.6211 298.199 20.2588 298.199 19.8486V19.835C298.199 19.4294 298.11 19.0693 297.932 18.7549C297.754 18.4404 297.513 18.1966 297.207 18.0234C296.902 17.8457 296.549 17.7568 296.148 17.7568C295.852 17.7568 295.576 17.8024 295.321 17.8936C295.07 17.9801 294.847 18.1123 294.651 18.29C294.564 18.3721 294.482 18.4609 294.405 18.5566C294.327 18.6478 294.259 18.7503 294.199 18.8643H292.873L293.366 13.1357H299.108V14.4346H294.575L294.275 17.5791H294.384C294.525 17.3558 294.701 17.1667 294.91 17.0117C295.125 16.8568 295.366 16.7383 295.635 16.6562C295.904 16.5742 296.189 16.5332 296.49 16.5332C297.109 16.5332 297.656 16.6745 298.13 16.957C298.609 17.2396 298.985 17.627 299.258 18.1191C299.532 18.6113 299.668 19.1742 299.668 19.8076V19.8213C299.668 20.4912 299.516 21.0837 299.21 21.5986C298.909 22.1136 298.492 22.5169 297.959 22.8086C297.431 23.0957 296.818 23.2393 296.12 23.2393Z" fill="white"/>
</g>
<defs>
<filter id="filter0_d_839_402" x="-16" y="-14" width="225" height="68" filterUnits="userSpaceOnUse" color-interpolation-filters="sRGB">
<feFlood flood-opacity="0" result="BackgroundImageFix"/>
<feColorMatrix in="SourceAlpha" type="matrix" values="0 0 0 0 0 0 0 0 0 0 0 0 0 0 0 0 0 0 127 0" result="hardAlpha"/>
<feOffset dy="2"/>
<feGaussianBlur stdDeviation="10"/>
<feColorMatrix type="matrix" values="0 0 0 0 0 0 0 0 0 0 0 0 0 0 0 0 0 0 0.06 0"/>
<feBlend mode="normal" in2="BackgroundImageFix" result="effect1_dropShadow_839_402"/>
<feBlend mode="normal" in="SourceGraphic" in2="effect1_dropShadow_839_402" result="shape"/>
</filter>
<clipPath id="clip0_839_402">
<rect width="370" height="36" rx="18" fill="white"/>
</clipPath>
</defs>
</svg>
