<svg width="375" height="131" viewBox="0 0 375 131" fill="none" xmlns="http://www.w3.org/2000/svg">
<g clip-path="url(#clip0_7_8)">
<g filter="url(#filter0_i_7_8)">
<rect x="0.000244141" width="375" height="130" rx="65" fill="url(#paint0_linear_7_8)"/>
</g>
<g filter="url(#filter1_f_7_8)">
<circle cx="310" cy="65" r="52" fill="white"/>
</g>
<path d="M310 117C338.719 117 362 93.7188 362 65C362 36.2812 338.719 13 310 13C281.281 13 258 36.2812 258 65C258 93.7188 281.281 117 310 117Z" fill="#EFEAD7"/>
<g opacity="0.54">
<path d="M310 13C306.695 13 303.463 13.312 300.329 13.9012C324.426 18.4342 342.658 39.5858 342.658 64.9995C342.658 90.4132 324.426 111.565 300.329 116.098C303.463 116.688 306.695 116.999 310 116.999C338.719 116.999 362 93.7183 362 64.9995C362 36.2807 338.719 13 310 13Z" fill="#E5E0CF"/>
</g>
<mask id="mask0_7_8" style="mask-type:luminance" maskUnits="userSpaceOnUse" x="258" y="13" width="105" height="104">
<path d="M310 117C338.719 117 362 93.7188 362 65C362 36.2812 338.719 13 310 13C281.281 13 258 36.2812 258 65C258 93.7188 281.281 117 310 117Z" fill="white"/>
</mask>
<g mask="url(#mask0_7_8)">
<path d="M296.699 39.8743C296.29 39.8743 295.894 39.9266 295.512 40.0166C297.797 40.5535 299.5 42.6 299.5 45.0489C299.5 47.4973 297.797 49.5438 295.512 50.0812C295.894 50.1706 296.29 50.2235 296.699 50.2235C299.557 50.2235 301.873 47.9071 301.873 45.0494C301.873 42.1907 299.557 39.8743 296.699 39.8743Z" fill="#DDD8CA"/>
<path d="M299.5 45.0484C299.5 42.6 297.797 40.5535 295.512 40.0161C293.228 40.553 291.525 42.5995 291.525 45.0484C291.525 47.4968 293.227 49.5433 295.512 50.0807C297.797 49.5437 299.5 47.4973 299.5 45.0484Z" fill="#E5E0CF"/>
<path d="M296.08 100.567C295.807 100.567 295.543 100.602 295.288 100.662C296.814 101.021 297.952 102.388 297.952 104.023C297.952 105.659 296.814 107.026 295.288 107.385C295.543 107.445 295.807 107.48 296.08 107.48C297.989 107.48 299.537 105.932 299.537 104.023C299.537 102.115 297.989 100.567 296.08 100.567Z" fill="#DDD8CA"/>
<path d="M297.951 104.024C297.951 102.388 296.814 101.021 295.287 100.663C293.761 101.021 292.623 102.388 292.623 104.024C292.623 105.66 293.761 107.027 295.287 107.385C296.814 107.027 297.951 105.66 297.951 104.024Z" fill="#E5E0CF"/>
<path d="M287.52 81.0675C286.946 81.0675 286.39 81.1408 285.855 81.267C289.061 82.0205 291.451 84.8924 291.451 88.3291C291.451 91.7653 289.061 94.6376 285.855 95.3912C286.39 95.5173 286.946 95.5907 287.52 95.5907C291.53 95.5907 294.781 92.3398 294.781 88.3291C294.781 84.3183 291.53 81.0675 287.52 81.0675Z" fill="#DDD8CA"/>
<path d="M291.45 88.3286C291.45 84.8924 289.061 82.0205 285.854 81.2665C282.648 82.02 280.258 84.8919 280.258 88.3286C280.258 91.7648 282.648 94.6372 285.854 95.3907C289.061 94.6372 291.45 91.7653 291.45 88.3286Z" fill="#E5E0CF"/>
<path d="M277.056 42.3848C276.181 42.3848 275.334 42.4968 274.518 42.6885C279.405 43.8371 283.047 48.2137 283.047 53.4508C283.047 58.688 279.405 63.0645 274.518 64.2132C275.334 64.4049 276.181 64.5173 277.056 64.5173C283.168 64.5173 288.123 59.5628 288.123 53.4508C288.123 47.3393 283.168 42.3848 277.056 42.3848Z" fill="#DDD8CA"/>
<path d="M283.047 53.4508C283.047 48.2137 279.405 43.8371 274.518 42.6885C269.632 43.8371 265.99 48.2137 265.99 53.4508C265.99 58.688 269.632 63.0645 274.518 64.2132C279.405 63.0645 283.047 58.688 283.047 53.4508Z" fill="#E5E0CF"/>
<path d="M329.29 76.6283C328.209 76.6283 327.161 76.7667 326.152 77.0044C332.195 78.4249 336.699 83.8376 336.699 90.3139C336.699 96.7907 332.195 102.203 326.152 103.624C327.161 103.861 328.209 104 329.29 104C336.849 104 342.976 97.8728 342.976 90.3144C342.976 82.7555 336.849 76.6283 329.29 76.6283Z" fill="#DDD8CA"/>
<path d="M336.699 90.3139C336.699 83.8372 332.195 78.4244 326.152 77.0044C320.109 78.4249 315.605 83.8376 315.605 90.3139C315.605 96.7907 320.109 102.203 326.152 103.624C332.195 102.203 336.699 96.7907 336.699 90.3139Z" fill="#E5E0CF"/>
<path d="M334.786 53.9247C334.104 53.9247 333.445 54.0117 332.81 54.1614C336.614 55.0553 339.449 58.4626 339.449 62.5394C339.449 66.6161 336.614 70.023 332.81 70.9174C333.445 71.0665 334.104 71.154 334.786 71.154C339.543 71.154 343.4 67.2973 343.4 62.5394C343.4 57.7814 339.543 53.9247 334.786 53.9247Z" fill="#DDD8CA"/>
<path d="M339.449 62.5389C339.449 58.4621 336.613 55.0553 332.81 54.1609C329.006 55.0548 326.17 58.4621 326.17 62.5389C326.17 66.6156 329.006 70.0225 332.81 70.9169C336.613 70.023 339.449 66.6156 339.449 62.5389Z" fill="#E5E0CF"/>
<path d="M350.458 67.909C350.022 67.909 349.6 67.9648 349.192 68.0606C351.629 68.6332 353.445 70.8156 353.445 73.4269C353.445 76.0381 351.629 78.22 349.192 78.7926C349.599 78.8885 350.022 78.9442 350.458 78.9442C353.505 78.9442 355.975 76.4738 355.975 73.4269C355.976 70.3794 353.505 67.909 350.458 67.909Z" fill="#DDD8CA"/>
<path d="M353.445 73.4264C353.445 70.8151 351.63 68.6332 349.193 68.0601C346.757 68.6328 344.941 70.8151 344.941 73.4264C344.941 76.0376 346.756 78.2196 349.193 78.7922C351.629 78.2196 353.445 76.0376 353.445 73.4264Z" fill="#E5E0CF"/>
<path d="M348.158 44.8435C347.74 44.8435 347.336 44.8968 346.946 44.9887C349.278 45.5369 351.017 47.6259 351.017 50.1252C351.017 52.6244 349.278 54.7134 346.946 55.2616C347.336 55.353 347.74 55.4068 348.158 55.4068C351.075 55.4068 353.439 53.042 353.439 50.1252C353.439 47.2083 351.075 44.8435 348.158 44.8435Z" fill="#DDD8CA"/>
<path d="M351.017 50.1252C351.017 47.6259 349.278 45.5369 346.946 44.9887C344.614 45.5369 342.876 47.6259 342.876 50.1252C342.876 52.6244 344.614 54.7134 346.946 55.2616C349.278 54.7134 351.017 52.6244 351.017 50.1252Z" fill="#E5E0CF"/>
<path d="M291.8 23.1462C291.274 23.1462 290.765 23.2137 290.274 23.3291C293.212 24.0196 295.403 26.6518 295.403 29.8015C295.403 32.9511 293.212 35.5829 290.274 36.2738C290.765 36.3892 291.274 36.4567 291.8 36.4567C295.475 36.4567 298.455 33.4773 298.455 29.8015C298.455 26.1257 295.476 23.1462 291.8 23.1462Z" fill="#DDD8CA"/>
<path d="M295.403 29.8015C295.403 26.6523 293.212 24.02 290.274 23.3291C287.335 24.0196 285.145 26.6518 285.145 29.8015C285.145 32.9511 287.335 35.5829 290.274 36.2738C293.212 35.5829 295.403 32.9506 295.403 29.8015Z" fill="#E5E0CF"/>
</g>
<circle cx="79.5002" cy="27.5" r="1.5" fill="#C7C7C7"/>
<circle cx="146.5" cy="29.5" r="1.5" fill="#C7C7C7"/>
<circle cx="244.5" cy="107.5" r="1.5" fill="#C7C7C7"/>
<circle cx="232.5" cy="20.5" r="1.5" fill="#C7C7C7"/>
<circle cx="219.5" cy="48.5" r="1.5" fill="#C7C7C7"/>
<circle cx="174.5" cy="74.5" r="1.5" fill="#C7C7C7"/>
<circle cx="163.5" cy="109.5" r="1.5" fill="#C7C7C7"/>
<circle cx="87.5002" cy="61.5" r="1.5" fill="#C7C7C7"/>
<circle cx="40.5002" cy="42.5" r="1.5" fill="#C7C7C7"/>
</g>
<defs>
<filter id="filter0_i_7_8" x="-1.99976" y="0" width="377" height="134" filterUnits="userSpaceOnUse" color-interpolation-filters="sRGB">
<feFlood flood-opacity="0" result="BackgroundImageFix"/>
<feBlend mode="normal" in="SourceGraphic" in2="BackgroundImageFix" result="shape"/>
<feColorMatrix in="SourceAlpha" type="matrix" values="0 0 0 0 0 0 0 0 0 0 0 0 0 0 0 0 0 0 127 0" result="hardAlpha"/>
<feOffset dx="-2" dy="4"/>
<feGaussianBlur stdDeviation="7"/>
<feComposite in2="hardAlpha" operator="arithmetic" k2="-1" k3="1"/>
<feColorMatrix type="matrix" values="0 0 0 0 0 0 0 0 0 0 0 0 0 0 0 0 0 0 0.3 0"/>
<feBlend mode="normal" in2="shape" result="effect1_innerShadow_7_8"/>
</filter>
<filter id="filter1_f_7_8" x="244" y="-1" width="132" height="132" filterUnits="userSpaceOnUse" color-interpolation-filters="sRGB">
<feFlood flood-opacity="0" result="BackgroundImageFix"/>
<feBlend mode="normal" in="SourceGraphic" in2="BackgroundImageFix" result="shape"/>
<feGaussianBlur stdDeviation="7" result="effect1_foregroundBlur_7_8"/>
</filter>
<linearGradient id="paint0_linear_7_8" x1="55.6424" y1="156.5" x2="382.11" y2="16.5895" gradientUnits="userSpaceOnUse">
<stop stop-color="#041326"/>
<stop offset="1" stop-color="#0E314C"/>
</linearGradient>
<clipPath id="clip0_7_8">
<rect x="0.000244141" width="375" height="130.24" rx="65.1201" fill="white"/>
</clipPath>
</defs>
</svg>
