<svg width="375" height="130" viewBox="0 0 375 130" fill="none" xmlns="http://www.w3.org/2000/svg">
<g clip-path="url(#clip0_7_82)">
<g filter="url(#filter0_i_7_82)">
<rect width="375" height="130" rx="65" fill="url(#paint0_linear_7_82)"/>
</g>
<g opacity="0.75">
<path d="M336.328 48.5131C336.054 47.7031 335.343 45.9911 333.616 44.6651C333.4 44.4991 330.734 42.5091 327.885 43.0461C325.699 43.4581 324.904 43.6871 324.904 43.6871C324.012 43.9551 323.381 44.1881 323.074 43.8931C322.77 43.6001 323.007 42.9941 323.075 42.5051C323.312 40.8111 321.714 39.2601 320.812 38.3851C318.171 35.8221 314.153 35.9101 312.449 35.9561C306.927 36.1071 303.427 39.2011 303.046 39.5491C301.437 41.0181 301.881 41.6731 300.321 42.3881C297.925 43.4861 295.907 42.3831 292.896 43.6691C292.224 43.9561 290.807 44.6811 290.367 45.7021C290.04 46.4631 290.302 47.0841 290.514 47.5841C290.709 48.0461 290.864 48.4111 290.53 48.7311C290.124 49.1211 289.335 49.1061 288.242 49.0851C287.612 49.0731 286.898 49.0591 286.097 49.1181C282.864 49.3571 281.302 52.8231 278.036 52.6471C277.447 52.6151 276.984 52.4671 276.746 52.3801C275.597 55.4041 275.993 57.2321 276.494 58.3071C280.23 66.3101 304.356 63.5371 314.744 62.3421C318.79 61.8771 320.93 61.4121 325.313 61.3351C331.343 61.2291 333.904 61.1181 339.027 60.8951C341.975 60.7671 343.169 60.6861 344.156 59.7241C346.433 57.5081 346.042 52.1461 343.242 49.6341C341.693 48.2451 339.725 48.0121 339.593 47.9981C338.083 47.8411 336.895 48.2661 336.328 48.5131Z" fill="#F2F7F8"/>
<path d="M330.674 51.8071C332.154 51.7031 335.038 51.5001 336.133 49.3841C337.213 47.2971 335.858 44.6921 334.661 43.3761C332.217 40.6901 328.468 41.2212 327.905 41.3102C325.379 41.7072 323.773 43.2081 323.205 43.7951C323.228 42.7961 323.129 41.1301 322.309 39.3241C320.718 35.8201 317.59 34.3892 316.623 33.9652C312.2 32.0242 308.084 33.5272 306.885 34.0302C305.697 34.5292 303.409 35.5272 301.853 38.0162C300.802 39.6982 300.531 41.3451 300.451 42.2891C299.777 41.9311 297.797 40.9961 295.367 41.4921C292.621 42.0521 290.376 44.2201 289.463 47.1041C288.072 46.7981 285.343 46.4182 282.328 47.5252C281.383 47.8722 279.307 48.6641 277.762 50.6821C276.735 52.0241 275.851 54.0252 276.38 54.4992C276.818 54.8912 277.853 53.9001 280.065 52.9531C281.436 52.3671 285.315 50.7082 288.939 51.9122C290.667 52.4862 290.518 53.1071 292.183 53.4931C295.158 54.1831 297.788 52.7002 298.435 52.3352C301.688 50.5012 302.858 47.3821 303.161 46.4791C303.839 46.9461 304.829 47.5511 306.102 48.0791C310.3 49.8211 314.075 49.2722 315.251 49.0592C318.166 48.5322 320.32 47.3131 321.59 46.4451C321.947 47.2481 322.723 48.6942 324.27 49.9092C326.772 51.8782 329.553 51.8861 330.674 51.8071Z" fill="white"/>
<path d="M301.199 56.6431C302.137 57.3101 303.241 57.9451 304.523 58.4501C310.801 60.9261 316.905 58.5441 318.975 57.6231C320.505 58.3181 322.774 59.0391 325.314 58.5381C326.614 58.2821 326.796 57.9401 328.19 57.6881C330.885 57.2021 334.893 58.3171 334.893 58.3171C340.269 59.9191 344.353 58.1761 344.561 59.0701C344.764 59.9421 340.972 61.9801 337.138 62.7821C332.145 63.8261 327.673 63.0851 324.513 62.1571C321.039 64.2791 317.939 65.2821 315.837 65.7921C311.288 66.8961 309.552 66.1411 308.714 65.5961C308.089 65.1901 308.171 65.0361 307.554 64.6881C305.648 63.6131 303.575 64.3581 300.723 64.9991C300.723 64.9991 297.887 65.6321 294.99 65.9231C292.394 66.1841 288.195 66.6071 283.956 64.6111C282.744 64.0401 280.923 62.9871 279.081 61.0151C279.965 59.9671 281.484 58.4951 283.684 57.9511C287.906 56.9071 290.787 60.8351 295.382 59.5851C298.122 58.8391 300.087 57.5141 301.199 56.6431Z" fill="#CEEAF0"/>
</g>
<g opacity="0.5">
<path d="M191.822 20.4581C194.482 18.7828 197.184 17.2605 199.985 15.9227C197.871 15.3744 196.157 15.4663 195.969 15.4795C195.57 15.5072 190.314 15.9498 187.329 19.9588C185.973 21.7807 185.458 23.8356 184.996 25.0639C187.386 23.9049 189.579 21.8708 191.822 20.4581Z" fill="#F2F7F8"/>
<path d="M235.071 34.917C233.868 33.9639 232.598 33.7416 232.059 33.6535C228.995 33.153 227.417 35.0977 226.174 34.2371C225.243 33.5931 226 32.4372 225.066 30.3339C224.964 30.1022 223.728 27.4266 220.873 26.3513C218.507 25.4605 216.307 26.1486 215.418 26.4262C212.06 27.4763 211.038 29.749 209.866 29.2372C208.828 28.7839 209.358 26.9129 208.295 23.8526C208.077 23.223 207.186 20.8112 205.3 18.893C204.151 17.7245 202.839 16.9514 201.569 16.4409C196.57 18.694 191.865 21.5522 187.455 24.8316C182.576 28.4591 176.829 26.3715 171.188 26.9116C167.299 27.2843 163.999 29.2982 160.958 31.6219C159.557 32.6922 158.837 33.8008 157.72 35.1128C157.439 35.4421 156.961 36.1037 156.464 36.2334C155.34 36.5274 153.571 35.6586 152.18 34.946C152.501 35.9262 153.104 36.4298 152.953 36.6061C152.783 36.8044 151.975 36.2189 150.845 35.8154C149.485 35.33 148.332 35.3558 147.614 35.359C147.064 35.3615 144.811 35.42 142.6 36.756C142.552 36.7843 142.482 36.8271 142.393 36.8831C141.95 37.1633 138.003 39.7583 138.02 43.8542C138.03 46.2364 139.379 48.494 141.111 49.7172C143.1 51.123 144.257 50.2183 148.212 51.7948C150.562 52.7315 150.29 53.1049 152.449 53.9119C155.626 55.0993 158.394 55.1056 160.012 55.0943C162.044 55.0804 164.39 55.0647 167.147 54.0328C170.206 52.8883 172.003 51.1551 174.322 51.8634C174.932 52.0497 174.961 52.2373 175.927 52.5294C176.434 52.6824 178.146 53.1615 180.397 52.9903C184.138 52.7057 185.003 50.9568 187.542 50.7113C190.476 50.4274 191.993 52.8694 194.789 54.0196C204.645 58.0733 218.631 55.817 222.681 49.1972C223.467 47.9129 223.608 46.9069 224.909 45.9229C228.062 43.5381 231.635 46.0696 234.946 43.6515C235.264 43.4198 237.186 41.9687 237.361 39.6393C237.563 36.9486 235.286 35.0864 235.071 34.917Z" fill="#F2F7F8"/>
<path d="M235.145 45.9267C232.211 47.3709 226.645 45.1441 225.381 46.1942C225.027 46.4882 224.75 46.8257 224.75 46.8257C224.213 47.5239 224.201 48.1717 222.704 49.8306C220.238 52.5635 217.393 53.837 217.278 53.6752C217.109 53.4392 220.355 51.8684 223.108 48.1389C224.29 46.5374 228.288 41.1207 226.439 35.3281C225.322 31.8284 222.654 30.0159 222.156 29.6892C217.491 26.6289 212.31 28.6826 211.949 28.833C209.862 29.7018 208.516 31.0421 207.815 31.8561C207.388 30.7273 206.277 28.2608 203.7 26.2991C201.122 24.3367 198.516 23.9735 197.1 23.796C192.235 23.1859 188.444 25.1589 187.353 25.7451C184.245 27.4165 183.761 28.9356 182.163 29.8907C181.765 30.128 181.259 30.3477 180.64 30.5102C180.015 30.6738 179.481 30.711 179.128 30.7166C177.722 28.1348 174.926 27.0766 172.881 27.9227C170.989 28.7052 170.406 30.8438 170.328 31.1454C169.783 30.7991 168.792 30.2778 167.481 30.1784C165.565 30.0323 164.149 30.8778 163.314 31.3764C159.927 33.3985 158.697 37.0884 158.349 38.2902C157.546 37.8174 156.419 37.3446 155.307 37.6682C153.936 38.0673 153.725 39.346 152.692 39.4335C151.391 39.543 150.847 37.5882 149.217 36.5715C148.038 35.8362 146.03 35.4295 142.393 36.8844C143.409 36.2832 145.271 35.3835 147.614 35.3602C148.346 35.3527 149.507 35.291 150.845 35.8167C151.191 35.9527 151.469 36.0949 151.661 36.2026C151.559 35.8249 151.444 35.2161 151.527 34.477C151.562 34.1704 151.685 33.1832 152.378 32.2868C153.393 30.9754 155.318 30.2564 156.738 30.7702C157.757 31.1391 158.273 32.0551 158.5 31.9008C158.726 31.7472 158.078 30.9338 158.149 29.8113C158.25 28.2047 159.752 27.1521 159.961 27.0098C160.347 26.7479 161.618 25.8836 163.078 26.3482C164.001 26.6415 164.53 27.317 164.733 27.6098C164.701 26.9903 164.696 25.2804 165.806 23.6008C166.02 23.2772 167.556 21.036 170.437 20.725C172.623 20.4889 174.225 21.5119 174.667 21.8034C175.996 22.6798 176.672 23.8136 176.963 24.3846C177.115 24.0597 177.532 23.2911 178.41 22.8472C179.905 22.0905 181.388 22.8818 181.558 22.9769C182.678 23.6027 183.082 24.6578 183.185 24.9562C183.406 23.6518 184.092 20.7061 186.531 18.1155C189.249 15.2283 193.619 13.3353 197.97 14.2185C201.9 15.0162 204.26 17.7088 205.299 18.8949C207.234 21.1021 208.085 23.269 208.295 23.8545C208.846 25.3868 209.045 26.746 209.119 27.7168C210.185 26.8997 212.221 25.5864 215.076 25.1495C216.282 24.965 218.438 24.6622 220.898 25.6424C223.497 26.6774 224.9 28.5327 225.511 29.3625C226.883 31.226 227.389 33.0706 227.595 34.1244C228.365 33.8078 230.043 33.2481 232.059 33.6554C234.428 34.1345 237.225 35.9413 237.863 39.035C238.41 41.6866 237.282 44.8753 235.145 45.9267Z" fill="white"/>
<path d="M232.952 36.6521C230.429 35.2091 227.601 36.1239 226.719 36.4091C223.998 37.2898 224.119 38.5577 222.02 38.858C219.594 39.2055 219.045 37.5656 216.565 37.8816C214.284 38.1718 214.137 39.6607 211.723 40.0044C210.048 40.243 209.8 39.5713 206.79 39.0381C205.543 38.8171 202.798 38.3544 199.646 38.943C198.384 39.1791 196.488 39.689 194.345 40.9236C193.634 42.0637 192.044 44.6839 188.839 45.875C186.399 46.7816 183.572 47.0265 181.007 46.8572C179.198 46.7375 171.544 45.7605 170.738 42.8179C168.316 44.75 165.799 46.7338 162.73 47.4099C161.205 47.7461 157.945 48.4229 154.622 46.7312C153.035 45.9235 151.974 44.8476 151.347 44.0934C150.466 44.5146 148.855 45.1158 146.874 44.9068C142.143 44.4063 139.838 39.7551 139.665 39.39C139.15 40.1134 138.189 41.6784 138.021 43.8542C137.977 44.4227 137.744 48.3398 140.876 51.0286C143.893 53.6186 147.566 52.9519 148.021 52.8606C149.129 53.8376 153.729 57.6685 160.664 57.6244C168.491 57.5747 173.387 52.6258 174.252 51.7192C174.639 52.1164 177.272 54.7329 181.368 54.5094C185.28 54.296 187.566 51.655 187.94 51.2086C189.444 52.129 191.757 53.3982 194.75 54.4615C197.812 55.5494 209.154 59.5773 219.48 53.9598C221.328 52.9544 224.168 51.0821 226.916 47.6403C230.793 48.9712 234.608 47.4911 235.835 44.8778C236.752 42.9231 236.157 40.4709 235.186 38.8838C234.922 38.4557 234.257 37.3981 232.952 36.6521Z" fill="#CEEAF0"/>
<path d="M222.881 47.2645C222.755 47.5667 222.376 48.3586 220.617 49.9218C219.282 51.1092 217.663 52.5483 215.136 53.5405C213.844 54.0473 208.296 56.2249 205.266 53.764C203.824 52.5937 203.684 50.9688 202.246 50.7931C200.951 50.6351 200.283 51.8816 198.983 51.5725C197.927 51.3213 197.236 50.229 196.986 49.4295C196.311 47.2626 198.081 44.6795 200.123 43.8258C200.49 43.6722 201.215 43.3436 202.162 43.4664C203.313 43.6149 204.054 44.3194 204.308 44.5845C204.322 44.3031 204.433 42.6763 205.777 41.6029C207.618 40.1329 209.97 41.1402 210.077 41.188C210.852 41.5355 211.356 42.0499 211.635 42.3873C211.879 41.8654 212.808 40.0397 214.878 39.2144C217.442 38.192 220.533 39.1917 222.141 41.4115C223.395 43.1447 223.635 45.4665 222.881 47.2645Z" fill="white"/>
<path d="M222.69 47.7039C222.741 47.7512 221.423 49.6801 219.515 51.2685C214.853 55.1516 207.347 56.7406 204.824 54.0977C204.074 53.3114 203.985 52.3815 202.844 51.8974C201.469 51.3144 200.417 52.1618 198.982 51.5719C198.038 51.1835 197.458 50.3915 197.108 49.7601C197.533 50.0245 198.306 50.4186 199.33 50.4815C201.447 50.6112 202.898 49.2186 203.158 48.9612C204.344 49.9439 206.647 51.5574 209.94 52.1631C211.513 52.4527 215.825 52.9934 219.485 50.615C221.366 49.393 222.642 47.6586 222.69 47.7039Z" fill="#CEEAF0"/>
</g>
<path d="M146.058 106.292C148.052 108.909 152.014 109.849 155.736 108.396C156.167 109.197 156.859 110.335 157.907 111.528C163.933 118.394 175.044 119.48 183.284 117C185.362 116.375 188.424 115.172 191.734 112.698C192.92 113.308 194.467 113.962 196.34 114.418C199.23 115.122 201.735 115.072 203.45 114.894C207.399 116.428 210.924 117.207 213.727 117.62C216.75 118.064 230.18 119.736 241.104 112.348C244.81 109.841 245.845 107.904 246.203 106.269C246.956 102.83 245.124 98.8665 243.387 97.7382C242.789 97.3503 241.43 96.5117 239.966 94.9114C239.735 94.6588 239.517 94.355 239.286 93.9374C237.144 90.0745 241.232 87.0252 240.213 82.2461C239.012 76.6154 231.127 70.9114 225.183 71.9859C222.195 72.5263 221.298 74.493 218.506 74.0971C214.963 73.5943 214.671 70.1791 211.404 69.6345C207.536 68.9898 202.684 72.8988 201.982 76.7523C201.611 78.7881 202.356 81.0521 202.056 81.1165C201.829 81.165 201.69 79.8538 200.682 78.9052C199.368 77.6689 196.985 77.438 195.106 78.2807C193.281 79.0999 191.801 80.9928 191.859 82.8646C191.928 85.0533 194.078 86.5648 193.892 86.7519C193.699 86.9466 191.829 84.9178 189.214 83.5832C185.492 81.6837 181.48 82.8119 180.915 82.9793C176.357 84.3304 173.67 88.397 173.37 88.8645C172.397 90.3797 172.297 91.2248 171.297 91.6076C169.613 92.2519 168.427 90.4173 164.709 89.5572C163.146 89.1955 161.382 88.7869 159.46 89.5299C156.722 90.5885 155.554 93.1732 155.458 93.3971C154.577 95.4282 155.314 96.5343 154.424 97.1622C153.235 98.0002 151.7 96.1421 148.756 96.6486C148.179 96.7478 146.836 96.9453 145.867 97.8887C143.95 99.7548 144.183 103.83 146.058 106.292Z" fill="#E9F4F6"/>
<path d="M160.403 100.308C162.295 99.2968 165.562 97.5501 169.466 96.9801C175.996 96.0264 177.713 99.3292 183.067 98.106C187.656 97.0577 187.938 94.2788 192.292 92.5637C195.508 91.2968 200.581 90.7536 208.495 94.4651C209.463 93.4643 211.316 91.8399 214.084 91.0188C218.837 89.6089 224.927 90.9718 227.372 94.679C229.902 98.5137 226.969 102.487 230.013 105.364C231.92 107.167 234.777 107.217 235.322 107.227C239.312 107.297 241.579 104.528 242.681 105.364C243.609 106.068 243.135 108.89 241.921 111.029C237.414 118.966 221.943 118.85 213.727 117.62C209.206 116.944 205.644 115.744 203.45 114.895C201.735 115.072 199.23 115.123 196.34 114.419C194.467 113.963 192.92 113.31 191.734 112.699C188.423 115.173 185.362 116.376 183.284 117.001C175.044 119.481 163.933 118.395 157.907 111.529C156.859 110.336 156.167 109.197 155.736 108.397C154.544 108.848 152.729 109.303 150.626 108.94C149.628 108.769 146.574 108.243 146.058 106.293C145.786 105.262 146.241 103.903 147.11 103.502C148.095 103.045 149.017 104.096 150.37 104.526C153.286 105.453 155.832 102.751 160.403 100.308Z" fill="#CEEAF0"/>
<path d="M144.299 98.2777C144.559 97.9221 145.627 96.5381 147.571 95.9342C149.309 95.3944 150.785 95.7767 151.819 96.0452C152.956 96.3401 153.83 96.7841 154.395 97.1194C154.262 96.1426 154.011 93.2898 155.81 90.9262C158.903 86.8629 165.052 88.1906 165.655 88.3302C168.53 88.9966 170.417 90.676 171.279 91.5592C171.505 90.6915 173.02 85.2461 178.377 82.6059C179.664 81.9715 183.109 80.5451 187.188 81.5925C189.005 82.059 190.357 82.8651 191.19 83.4529C191.124 80.5959 192.826 78.0799 195.295 77.2452C198.186 76.2684 200.692 78.0799 200.92 78.2511C200.903 77.9487 200.641 71.416 205.991 67.8508C210.51 64.8395 215.392 66.3713 215.86 66.5269C219.304 67.6725 221.152 70.158 221.739 71.0256C222.426 70.7562 229.746 68.0248 236.392 72.4544C241.585 75.9166 244.022 82.1921 243.175 87.6601C242.793 90.1262 241.807 92.0022 241.087 93.1379C241.95 93.5269 243.23 94.2243 244.488 95.4386C245.123 96.0518 246.594 97.4984 247.38 99.8682C247.696 100.821 248.691 103.801 247.207 106.842C245.742 109.842 242.67 111.251 242.492 111.055C242.412 110.967 242.907 110.536 243.454 109.705C243.754 109.251 245.147 107.043 245 104.154C244.82 100.638 242.476 98.3868 241.827 97.8088C239.92 96.1078 237.836 95.6333 236.914 95.4804C237.183 94.1302 237.829 89.9776 235.6 85.5885C235.31 85.0194 232.446 79.5985 226.214 77.9148C223.512 77.185 221.156 77.422 219.945 77.6256C216.042 78.2821 214.663 80.3928 209.984 81.5939C208.086 82.0811 206.479 82.2137 205.475 82.2537C204.88 83.3382 203.898 84.8727 202.346 86.4115C201.345 87.4038 200.626 88.1261 199.526 88.5263C196.687 89.5586 194.137 88.0481 193.768 87.8214C192.662 87.0769 189.468 85.1398 185.014 85.2894C183.002 85.3566 179.286 85.8984 176.025 88.7615C173.202 91.2403 172.162 94.1919 171.795 95.4593C171.278 94.918 168.187 91.7863 163.672 92.0511C162.764 92.1043 160.356 92.2816 158.284 94.1641C155.582 96.6195 155.572 100.049 155.58 100.629C155.136 100.073 154.047 98.8712 152.262 98.3901C150.082 97.8027 147.061 98.3825 145.606 100.715C144.575 102.366 144.748 104.975 146.089 106.252C146.201 106.358 146.323 106.455 146.457 106.546C146.315 106.493 146.173 106.419 146.03 106.336C145.409 105.976 143.622 104.94 143.125 102.862C142.588 100.62 143.936 98.7748 144.299 98.2777Z" fill="white"/>
<path d="M218.477 110.043C214.776 109.919 211.337 107.384 209.605 103.559C206.508 105.991 204.312 106.172 202.901 105.915C199.358 105.269 199.087 101.555 194.461 100.011C190.969 98.8453 187.499 99.5724 187.499 99.5724C184.898 100.117 183.316 101.347 181.554 100.598C180.432 100.12 179.801 99.0804 179.455 98.3336C180.182 98.24 180.712 98.0355 181.04 97.8817C182.55 97.1753 183.631 95.8449 184.326 94.7327C185.669 93.4643 188.111 91.5263 191.675 90.4775C197.545 88.7502 202.492 90.6036 204.037 91.262C205.838 92.029 207.197 92.954 208.096 93.6524C208.079 93.0462 208.097 92.1945 208.255 91.1942C208.353 90.5786 208.843 87.4823 210.719 85.2687C213.24 82.2932 217.962 81.2684 221.828 82.4879C226.182 83.8616 228.096 87.614 228.725 88.8471C231.2 93.699 230.69 99.7294 227.708 104.12C226.609 105.738 223.569 110.214 218.477 110.043Z" fill="#E9F4F6"/>
<path d="M224.148 108.143C224.132 108.127 224.116 108.111 224.1 108.095C226.892 105.546 228.997 101.476 228.172 98.9351C228.054 98.5697 227.674 97.3983 226.653 96.9115C225.587 96.4036 224.858 97.1363 223.682 97.1401C220.719 97.1499 220.132 92.5209 216.482 91.769C214.553 91.3716 212.918 92.2938 212.51 92.5242C209.994 93.9436 209.376 96.6505 209.271 97.1457C208.265 96.2023 206.548 94.8253 204.091 93.8622C200.049 92.2778 196.382 92.766 194.558 93.138C191.214 93.8203 188.45 95.5453 187.27 96.3599C184.653 98.1667 183.139 100.084 181.286 99.6584C180.431 99.4623 179.832 98.8411 179.454 98.3332C180.181 98.2396 180.711 98.035 181.04 97.8812C182.549 97.1749 183.63 95.8444 184.325 94.7322C186.671 91.0753 192.033 89.7472 192.625 89.6005C196.73 88.5842 200.312 89.8596 202.426 90.6116C204.954 91.5112 206.853 92.726 208.095 93.652C208.079 93.0458 208.096 92.1941 208.254 91.1938C208.352 90.5782 208.845 87.4842 210.718 85.2682C213.149 82.3934 217.821 81.2238 221.827 82.4874C226.181 83.8611 228.095 87.6135 228.724 88.8466C232.486 96.2211 227.904 103.8 227.707 104.119C227.12 105.072 225.988 106.626 224.148 108.143Z" fill="white"/>
<path d="M176.273 107.767C176.292 107.508 176.321 106.648 175.736 105.895C175.015 104.967 173.897 104.895 173.502 104.87C172.232 104.788 171.316 105.436 171.047 105.642C171.058 105.305 171.071 103.845 169.976 102.603C168.986 101.479 167.727 101.257 167.268 101.183C166.954 101.132 164.591 100.787 163.307 102.329C162.576 103.207 162.473 104.365 162.45 104.618C162.41 105.067 162.446 105.444 162.486 105.707C162.397 105.57 161.654 104.472 160.278 104.366C158.957 104.264 158.093 105.158 157.886 105.373C156.649 106.653 156.969 108.435 157.007 108.627C156.085 108.347 155.092 108.632 154.496 109.344C153.822 110.149 153.781 111.352 154.419 112.248C154.601 112.408 154.877 112.638 155.231 112.889C155.425 113.026 157.453 114.434 160.01 114.755C163.796 115.232 164.887 112.841 168.819 113.6C169.849 113.799 169.567 113.923 170.769 114.177C171.53 114.339 176.066 115.301 179.119 112.755C179.762 112.219 180.987 111.172 180.863 109.735C180.774 108.702 179.997 107.595 178.792 107.261C177.476 106.898 176.408 107.666 176.273 107.767Z" fill="white"/>
<path d="M168.717 109.907C170.77 110.401 172.119 111.634 172.755 112.313C172.853 112.133 173.824 110.424 175.644 110.285C176.815 110.196 178.334 110.758 178.514 111.701C178.698 112.664 177.408 113.624 177.133 113.829C175.166 115.293 173.41 114.471 168.577 114.71C165.695 114.852 164.993 115.21 162.643 114.964C159.247 114.608 158.433 113.623 158.139 113.055C158.085 112.953 157.764 112.311 157.907 111.528C158.178 110.052 159.848 109.463 160.028 109.403C160.252 109.327 161.872 108.784 162.895 109.769C163.393 110.247 163.519 110.867 163.558 111.164C163.864 110.824 164.385 110.339 165.153 110.006C166.572 109.391 167.892 109.709 168.717 109.907Z" fill="#E9F4F6"/>
<g filter="url(#filter1_f_7_82)">
<circle cx="65" cy="65" r="52" fill="url(#paint1_linear_7_82)"/>
</g>
<circle cx="65" cy="65" r="52" fill="url(#paint2_linear_7_82)"/>
<circle cx="366.5" cy="129.5" r="1.5" fill="#C7C7C7"/>
</g>
<defs>
<filter id="filter0_i_7_82" x="-2" y="0" width="377" height="134" filterUnits="userSpaceOnUse" color-interpolation-filters="sRGB">
<feFlood flood-opacity="0" result="BackgroundImageFix"/>
<feBlend mode="normal" in="SourceGraphic" in2="BackgroundImageFix" result="shape"/>
<feColorMatrix in="SourceAlpha" type="matrix" values="0 0 0 0 0 0 0 0 0 0 0 0 0 0 0 0 0 0 127 0" result="hardAlpha"/>
<feOffset dx="-2" dy="4"/>
<feGaussianBlur stdDeviation="7"/>
<feComposite in2="hardAlpha" operator="arithmetic" k2="-1" k3="1"/>
<feColorMatrix type="matrix" values="0 0 0 0 0 0 0 0 0 0 0 0 0 0 0 0 0 0 0.3 0"/>
<feBlend mode="normal" in2="shape" result="effect1_innerShadow_7_82"/>
</filter>
<filter id="filter1_f_7_82" x="-1" y="-1" width="132" height="132" filterUnits="userSpaceOnUse" color-interpolation-filters="sRGB">
<feFlood flood-opacity="0" result="BackgroundImageFix"/>
<feBlend mode="normal" in="SourceGraphic" in2="BackgroundImageFix" result="shape"/>
<feGaussianBlur stdDeviation="7" result="effect1_foregroundBlur_7_82"/>
</filter>
<linearGradient id="paint0_linear_7_82" x1="55.6421" y1="156.5" x2="382.11" y2="16.5895" gradientUnits="userSpaceOnUse">
<stop stop-color="#77C2D0"/>
<stop offset="1" stop-color="#3D91A7"/>
</linearGradient>
<linearGradient id="paint1_linear_7_82" x1="36.2632" y1="23.9474" x2="101.947" y2="117" gradientUnits="userSpaceOnUse">
<stop stop-color="#FFF500"/>
<stop offset="1" stop-color="#FFC700"/>
</linearGradient>
<linearGradient id="paint2_linear_7_82" x1="36.2632" y1="23.9474" x2="101.947" y2="117" gradientUnits="userSpaceOnUse">
<stop stop-color="#FFF500"/>
<stop offset="1" stop-color="#FFC700"/>
</linearGradient>
<clipPath id="clip0_7_82">
<rect width="375" height="130" rx="65" fill="white"/>
</clipPath>
</defs>
</svg>
