<svg width="346" height="52" viewBox="0 0 346 52" fill="none" xmlns="http://www.w3.org/2000/svg">
<rect x="0.5" y="0.5" width="345" height="51" rx="7.5" fill="white"/>
<rect x="0.5" y="0.5" width="345" height="51" rx="7.5" stroke="#9D9D9D"/>
<path d="M19.7727 22.7727C19.7045 22.197 19.428 21.75 18.9432 21.4318C18.4583 21.1136 17.8636 20.9545 17.1591 20.9545C16.6439 20.9545 16.1932 21.0379 15.8068 21.2045C15.4242 21.3712 15.125 21.6004 14.9091 21.892C14.697 22.1837 14.5909 22.5152 14.5909 22.8864C14.5909 23.197 14.6648 23.464 14.8125 23.6875C14.964 23.9072 15.1572 24.0909 15.392 24.2386C15.6269 24.3826 15.8731 24.5019 16.1307 24.5966C16.3883 24.6875 16.625 24.7614 16.8409 24.8182L18.0227 25.1364C18.3258 25.2159 18.6629 25.3258 19.0341 25.4659C19.4091 25.6061 19.767 25.7973 20.108 26.0398C20.4527 26.2784 20.7367 26.5852 20.9602 26.9602C21.1837 27.3352 21.2955 27.7955 21.2955 28.3409C21.2955 28.9697 21.1307 29.5379 20.8011 30.0455C20.4754 30.553 19.9981 30.9564 19.3693 31.2557C18.7443 31.5549 17.9848 31.7045 17.0909 31.7045C16.2576 31.7045 15.536 31.5701 14.9261 31.3011C14.3201 31.0322 13.8428 30.6572 13.4943 30.1761C13.1496 29.6951 12.9545 29.1364 12.9091 28.5H14.3636C14.4015 28.9394 14.5492 29.303 14.8068 29.5909C15.0682 29.875 15.3977 30.0871 15.7955 30.2273C16.197 30.3636 16.6288 30.4318 17.0909 30.4318C17.6288 30.4318 18.1117 30.3447 18.5398 30.1705C18.9678 29.9924 19.3068 29.7462 19.5568 29.4318C19.8068 29.1136 19.9318 28.7424 19.9318 28.3182C19.9318 27.9318 19.8239 27.6174 19.608 27.375C19.392 27.1326 19.108 26.9356 18.7557 26.7841C18.4034 26.6326 18.0227 26.5 17.6136 26.3864L16.1818 25.9773C15.2727 25.7159 14.553 25.3428 14.0227 24.858C13.4924 24.3731 13.2273 23.7386 13.2273 22.9545C13.2273 22.303 13.4034 21.7348 13.7557 21.25C14.1117 20.7614 14.589 20.3826 15.1875 20.1136C15.7898 19.8409 16.4621 19.7045 17.2045 19.7045C17.9545 19.7045 18.6212 19.839 19.2045 20.108C19.7879 20.3731 20.25 20.7367 20.5909 21.1989C20.9356 21.661 21.1174 22.1856 21.1364 22.7727H19.7727ZM27.0895 31.6818C26.2486 31.6818 25.5232 31.4962 24.9134 31.125C24.3073 30.75 23.8395 30.2273 23.5099 29.5568C23.1842 28.8826 23.0213 28.0985 23.0213 27.2045C23.0213 26.3106 23.1842 25.5227 23.5099 24.8409C23.8395 24.1553 24.2978 23.6212 24.8849 23.2386C25.4759 22.8523 26.1652 22.6591 26.9531 22.6591C27.4077 22.6591 27.8565 22.7348 28.2997 22.8864C28.7429 23.0379 29.1463 23.2841 29.5099 23.625C29.8736 23.9621 30.1634 24.4091 30.3793 24.9659C30.5952 25.5227 30.7031 26.2083 30.7031 27.0227V27.5909H23.9759V26.4318H29.3395C29.3395 25.9394 29.241 25.5 29.044 25.1136C28.8509 24.7273 28.5743 24.4223 28.2145 24.1989C27.8584 23.9754 27.438 23.8636 26.9531 23.8636C26.419 23.8636 25.9569 23.9962 25.5668 24.2614C25.1804 24.5227 24.883 24.8636 24.6747 25.2841C24.4664 25.7045 24.3622 26.1553 24.3622 26.6364V27.4091C24.3622 28.0682 24.4759 28.6269 24.7031 29.0852C24.9342 29.5398 25.2543 29.8864 25.6634 30.125C26.0724 30.3598 26.5478 30.4773 27.0895 30.4773C27.4418 30.4773 27.7599 30.428 28.044 30.3295C28.3319 30.2273 28.58 30.0758 28.7884 29.875C28.9967 29.6705 29.1577 29.4167 29.2713 29.1136L30.5668 29.4773C30.4304 29.9167 30.2012 30.303 29.8793 30.6364C29.5573 30.9659 29.1596 31.2235 28.6861 31.4091C28.2126 31.5909 27.6804 31.6818 27.0895 31.6818ZM34.0838 19.8636V31.5H32.7429V19.8636H34.0838ZM40.1989 31.6818C39.358 31.6818 38.6326 31.4962 38.0227 31.125C37.4167 30.75 36.9489 30.2273 36.6193 29.5568C36.2936 28.8826 36.1307 28.0985 36.1307 27.2045C36.1307 26.3106 36.2936 25.5227 36.6193 24.8409C36.9489 24.1553 37.4072 23.6212 37.9943 23.2386C38.5852 22.8523 39.2746 22.6591 40.0625 22.6591C40.517 22.6591 40.9659 22.7348 41.4091 22.8864C41.8523 23.0379 42.2557 23.2841 42.6193 23.625C42.983 23.9621 43.2727 24.4091 43.4886 24.9659C43.7045 25.5227 43.8125 26.2083 43.8125 27.0227V27.5909H37.0852V26.4318H42.4489C42.4489 25.9394 42.3504 25.5 42.1534 25.1136C41.9602 24.7273 41.6837 24.4223 41.3239 24.1989C40.9678 23.9754 40.5473 23.8636 40.0625 23.8636C39.5284 23.8636 39.0663 23.9962 38.6761 24.2614C38.2898 24.5227 37.9924 24.8636 37.7841 25.2841C37.5758 25.7045 37.4716 26.1553 37.4716 26.6364V27.4091C37.4716 28.0682 37.5852 28.6269 37.8125 29.0852C38.0436 29.5398 38.3636 29.8864 38.7727 30.125C39.1818 30.3598 39.6572 30.4773 40.1989 30.4773C40.5511 30.4773 40.8693 30.428 41.1534 30.3295C41.4413 30.2273 41.6894 30.0758 41.8977 29.875C42.1061 29.6705 42.267 29.4167 42.3807 29.1136L43.6761 29.4773C43.5398 29.9167 43.3106 30.303 42.9886 30.6364C42.6667 30.9659 42.2689 31.2235 41.7955 31.4091C41.322 31.5909 40.7898 31.6818 40.1989 31.6818ZM49.3977 31.6818C48.5795 31.6818 47.875 31.4886 47.2841 31.1023C46.6932 30.7159 46.2386 30.1837 45.9205 29.5057C45.6023 28.8277 45.4432 28.053 45.4432 27.1818C45.4432 26.2955 45.6061 25.5133 45.9318 24.8352C46.2614 24.1534 46.7197 23.6212 47.3068 23.2386C47.8977 22.8523 48.5871 22.6591 49.375 22.6591C49.9886 22.6591 50.5417 22.7727 51.0341 23C51.5265 23.2273 51.9299 23.5455 52.2443 23.9545C52.5587 24.3636 52.7538 24.8409 52.8295 25.3864H51.4886C51.3864 24.9886 51.1591 24.6364 50.8068 24.3295C50.4583 24.0189 49.9886 23.8636 49.3977 23.8636C48.875 23.8636 48.4167 24 48.0227 24.2727C47.6326 24.5417 47.3277 24.9223 47.108 25.4148C46.892 25.9034 46.7841 26.4773 46.7841 27.1364C46.7841 27.8106 46.8902 28.3977 47.1023 28.8977C47.3182 29.3977 47.6212 29.786 48.0114 30.0625C48.4053 30.339 48.8674 30.4773 49.3977 30.4773C49.7462 30.4773 50.0625 30.4167 50.3466 30.2955C50.6307 30.1742 50.8712 30 51.0682 29.7727C51.2652 29.5455 51.4053 29.2727 51.4886 28.9545H52.8295C52.7538 29.4697 52.5663 29.9337 52.267 30.3466C51.9716 30.7557 51.5795 31.0814 51.0909 31.3239C50.6061 31.5625 50.0417 31.6818 49.3977 31.6818ZM58.5852 22.7727V23.9091H54.0625V22.7727H58.5852ZM55.3807 20.6818H56.7216V29C56.7216 29.3788 56.7765 29.6629 56.8864 29.8523C57 30.0379 57.1439 30.1629 57.3182 30.2273C57.4962 30.2879 57.6837 30.3182 57.8807 30.3182C58.0284 30.3182 58.1496 30.3106 58.2443 30.2955C58.339 30.2765 58.4148 30.2614 58.4716 30.25L58.7443 31.4545C58.6534 31.4886 58.5265 31.5227 58.3636 31.5568C58.2008 31.5947 57.9943 31.6136 57.7443 31.6136C57.3655 31.6136 56.9943 31.5322 56.6307 31.3693C56.2708 31.2064 55.9716 30.9583 55.733 30.625C55.4981 30.2917 55.3807 29.8712 55.3807 29.3636V20.6818ZM64.1676 31.6818C63.3267 31.6818 62.6013 31.4962 61.9915 31.125C61.3854 30.75 60.9176 30.2273 60.5881 29.5568C60.2623 28.8826 60.0994 28.0985 60.0994 27.2045C60.0994 26.3106 60.2623 25.5227 60.5881 24.8409C60.9176 24.1553 61.3759 23.6212 61.9631 23.2386C62.554 22.8523 63.2434 22.6591 64.0312 22.6591C64.4858 22.6591 64.9347 22.7348 65.3778 22.8864C65.821 23.0379 66.2244 23.2841 66.5881 23.625C66.9517 23.9621 67.2415 24.4091 67.4574 24.9659C67.6733 25.5227 67.7812 26.2083 67.7812 27.0227V27.5909H61.054V26.4318H66.4176C66.4176 25.9394 66.3191 25.5 66.1222 25.1136C65.929 24.7273 65.6525 24.4223 65.2926 24.1989C64.9366 23.9754 64.5161 23.8636 64.0312 23.8636C63.4972 23.8636 63.035 23.9962 62.6449 24.2614C62.2585 24.5227 61.9612 24.8636 61.7528 25.2841C61.5445 25.7045 61.4403 26.1553 61.4403 26.6364V27.4091C61.4403 28.0682 61.554 28.6269 61.7812 29.0852C62.0123 29.5398 62.3324 29.8864 62.7415 30.125C63.1506 30.3598 63.6259 30.4773 64.1676 30.4773C64.5199 30.4773 64.8381 30.428 65.1222 30.3295C65.41 30.2273 65.6581 30.0758 65.8665 29.875C66.0748 29.6705 66.2358 29.4167 66.3494 29.1136L67.6449 29.4773C67.5085 29.9167 67.2794 30.303 66.9574 30.6364C66.6354 30.9659 66.2377 31.2235 65.7642 31.4091C65.2907 31.5909 64.7585 31.6818 64.1676 31.6818ZM73.1165 31.6818C72.3892 31.6818 71.7472 31.4981 71.1903 31.1307C70.6335 30.7595 70.1979 30.2367 69.8835 29.5625C69.5691 28.8845 69.4119 28.0833 69.4119 27.1591C69.4119 26.2424 69.5691 25.447 69.8835 24.7727C70.1979 24.0985 70.6354 23.5777 71.196 23.2102C71.7566 22.8428 72.4044 22.6591 73.1392 22.6591C73.7074 22.6591 74.1563 22.7538 74.4858 22.9432C74.8191 23.1288 75.0729 23.3409 75.2472 23.5795C75.4252 23.8144 75.5634 24.0076 75.6619 24.1591H75.7756V19.8636H77.1165V31.5H75.821V30.1591H75.6619C75.5634 30.3182 75.4233 30.5189 75.2415 30.7614C75.0597 31 74.8002 31.214 74.4631 31.4034C74.1259 31.589 73.6771 31.6818 73.1165 31.6818ZM73.2983 30.4773C73.8362 30.4773 74.2907 30.3371 74.6619 30.0568C75.0331 29.7727 75.3153 29.3807 75.5085 28.8807C75.7017 28.3769 75.7983 27.7955 75.7983 27.1364C75.7983 26.4848 75.7036 25.9148 75.5142 25.4261C75.3248 24.9337 75.0445 24.5511 74.6733 24.2784C74.3021 24.0019 73.8438 23.8636 73.2983 23.8636C72.7301 23.8636 72.2566 24.0095 71.8778 24.3011C71.5028 24.589 71.2206 24.9811 71.0312 25.4773C70.8456 25.9697 70.7528 26.5227 70.7528 27.1364C70.7528 27.7576 70.8475 28.322 71.0369 28.8295C71.2301 29.3333 71.5142 29.7348 71.8892 30.0341C72.268 30.3295 72.7377 30.4773 73.2983 30.4773ZM94.2585 25.6818C94.2585 26.9091 94.0369 27.9697 93.5938 28.8636C93.1506 29.7576 92.5426 30.447 91.7699 30.9318C90.9972 31.4167 90.1146 31.6591 89.1222 31.6591C88.1297 31.6591 87.2472 31.4167 86.4744 30.9318C85.7017 30.447 85.0938 29.7576 84.6506 28.8636C84.2074 27.9697 83.9858 26.9091 83.9858 25.6818C83.9858 24.4545 84.2074 23.3939 84.6506 22.5C85.0938 21.6061 85.7017 20.9167 86.4744 20.4318C87.2472 19.947 88.1297 19.7045 89.1222 19.7045C90.1146 19.7045 90.9972 19.947 91.7699 20.4318C92.5426 20.9167 93.1506 21.6061 93.5938 22.5C94.0369 23.3939 94.2585 24.4545 94.2585 25.6818ZM92.8949 25.6818C92.8949 24.6742 92.7263 23.8239 92.3892 23.1307C92.0559 22.4375 91.6032 21.9129 91.0312 21.5568C90.4631 21.2008 89.8267 21.0227 89.1222 21.0227C88.4176 21.0227 87.7794 21.2008 87.2074 21.5568C86.6392 21.9129 86.1866 22.4375 85.8494 23.1307C85.5161 23.8239 85.3494 24.6742 85.3494 25.6818C85.3494 26.6894 85.5161 27.5398 85.8494 28.233C86.1866 28.9261 86.6392 29.4508 87.2074 29.8068C87.7794 30.1629 88.4176 30.3409 89.1222 30.3409C89.8267 30.3409 90.4631 30.1629 91.0312 29.8068C91.6032 29.4508 92.0559 28.9261 92.3892 28.233C92.7263 27.5398 92.8949 26.6894 92.8949 25.6818ZM96.446 34.7727V22.7727H97.7415V24.1591H97.9006C97.9991 24.0076 98.1354 23.8144 98.3097 23.5795C98.4877 23.3409 98.7415 23.1288 99.071 22.9432C99.4044 22.7538 99.8551 22.6591 100.423 22.6591C101.158 22.6591 101.806 22.8428 102.366 23.2102C102.927 23.5777 103.365 24.0985 103.679 24.7727C103.993 25.447 104.151 26.2424 104.151 27.1591C104.151 28.0833 103.993 28.8845 103.679 29.5625C103.365 30.2367 102.929 30.7595 102.372 31.1307C101.815 31.4981 101.173 31.6818 100.446 31.6818C99.8854 31.6818 99.4366 31.589 99.0994 31.4034C98.7623 31.214 98.5028 31 98.321 30.7614C98.1392 30.5189 97.9991 30.3182 97.9006 30.1591H97.7869V34.7727H96.446ZM97.7642 27.1364C97.7642 27.7955 97.8608 28.3769 98.054 28.8807C98.2472 29.3807 98.5294 29.7727 98.9006 30.0568C99.2718 30.3371 99.7263 30.4773 100.264 30.4773C100.825 30.4773 101.293 30.3295 101.668 30.0341C102.046 29.7348 102.33 29.3333 102.52 28.8295C102.713 28.322 102.81 27.7576 102.81 27.1364C102.81 26.5227 102.715 25.9697 102.526 25.4773C102.34 24.9811 102.058 24.589 101.679 24.3011C101.304 24.0095 100.832 23.8636 100.264 23.8636C99.7188 23.8636 99.2604 24.0019 98.8892 24.2784C98.518 24.5511 98.2377 24.9337 98.0483 25.4261C97.8589 25.9148 97.7642 26.4848 97.7642 27.1364ZM109.991 22.7727V23.9091H105.469V22.7727H109.991ZM106.787 20.6818H108.128V29C108.128 29.3788 108.183 29.6629 108.293 29.8523C108.406 30.0379 108.55 30.1629 108.724 30.2273C108.902 30.2879 109.09 30.3182 109.287 30.3182C109.435 30.3182 109.556 30.3106 109.651 30.2955C109.745 30.2765 109.821 30.2614 109.878 30.25L110.151 31.4545C110.06 31.4886 109.933 31.5227 109.77 31.5568C109.607 31.5947 109.401 31.6136 109.151 31.6136C108.772 31.6136 108.401 31.5322 108.037 31.3693C107.677 31.2064 107.378 30.9583 107.139 30.625C106.904 30.2917 106.787 29.8712 106.787 29.3636V20.6818ZM112.009 31.5V22.7727H113.349V31.5H112.009ZM112.69 21.3182C112.429 21.3182 112.204 21.2292 112.014 21.0511C111.829 20.8731 111.736 20.6591 111.736 20.4091C111.736 20.1591 111.829 19.9451 112.014 19.767C112.204 19.589 112.429 19.5 112.69 19.5C112.952 19.5 113.175 19.589 113.361 19.767C113.55 19.9451 113.645 20.1591 113.645 20.4091C113.645 20.6591 113.55 20.8731 113.361 21.0511C113.175 21.2292 112.952 21.3182 112.69 21.3182ZM119.351 31.6818C118.563 31.6818 117.872 31.4943 117.277 31.1193C116.686 30.7443 116.224 30.2197 115.891 29.5455C115.561 28.8712 115.396 28.0833 115.396 27.1818C115.396 26.2727 115.561 25.4792 115.891 24.8011C116.224 24.1231 116.686 23.5966 117.277 23.2216C117.872 22.8466 118.563 22.6591 119.351 22.6591C120.139 22.6591 120.828 22.8466 121.419 23.2216C122.014 23.5966 122.476 24.1231 122.805 24.8011C123.139 25.4792 123.305 26.2727 123.305 27.1818C123.305 28.0833 123.139 28.8712 122.805 29.5455C122.476 30.2197 122.014 30.7443 121.419 31.1193C120.828 31.4943 120.139 31.6818 119.351 31.6818ZM119.351 30.4773C119.949 30.4773 120.442 30.3239 120.828 30.017C121.214 29.7102 121.5 29.3068 121.686 28.8068C121.872 28.3068 121.964 27.7652 121.964 27.1818C121.964 26.5985 121.872 26.0549 121.686 25.5511C121.5 25.0473 121.214 24.6402 120.828 24.3295C120.442 24.0189 119.949 23.8636 119.351 23.8636C118.752 23.8636 118.26 24.0189 117.874 24.3295C117.487 24.6402 117.201 25.0473 117.016 25.5511C116.83 26.0549 116.737 26.5985 116.737 27.1818C116.737 27.7652 116.83 28.3068 117.016 28.8068C117.201 29.3068 117.487 29.7102 117.874 30.017C118.26 30.3239 118.752 30.4773 119.351 30.4773ZM126.693 26.25V31.5H125.352V22.7727H126.648V24.1364H126.761C126.966 23.6932 127.277 23.3371 127.693 23.0682C128.11 22.7955 128.648 22.6591 129.307 22.6591C129.898 22.6591 130.415 22.7803 130.858 23.0227C131.301 23.2614 131.646 23.625 131.892 24.1136C132.138 24.5985 132.261 25.2121 132.261 25.9545V31.5H130.92V26.0455C130.92 25.3598 130.742 24.8258 130.386 24.4432C130.03 24.0568 129.542 23.8636 128.92 23.8636C128.492 23.8636 128.11 23.9564 127.773 24.142C127.439 24.3277 127.176 24.5985 126.983 24.9545C126.79 25.3106 126.693 25.7424 126.693 26.25Z" fill="black"/>
<g clip-path="url(#clip0_3_92)">
<path d="M317.41 22.59L322 27.17L326.59 22.59L328 24L322 30L316 24L317.41 22.59Z" fill="black"/>
</g>
<defs>
<clipPath id="clip0_3_92">
<rect width="24" height="24" fill="white" transform="translate(310 14)"/>
</clipPath>
</defs>
</svg>
